<svg version="1.1" xmlns="http://www.w3.org/2000/svg" xmlns:xlink="http://www.w3.org/1999/xlink" x="0" y="0" viewBox="0 0 56 39.1" xml:space="preserve" enable-background="new 0 0 56 39.1"><style type="text/css">.st0{fill:#acc937}.st1{fill:#ffc627}.st2{fill:#1f988b}</style><g id="Yellow_-__x23_fcca25"><g><g><polygon class="st0" points="15.9,4.4 17.7,4.3 19.8,0 17.2,0"/><path class="st1" d="M8.7,21.7l9-17.4h-1.5c-1.3,0-2.6-0.1-3.8,0.4C11,5.2,10.1,6.5,9.3,7.6C8.1,9.4,7,11.2,5.8,13l-2.9,4.3 L0,21.7l5.8,8.7c1.2,1.8,2.3,3.6,3.5,5.4c0.8,1.2,1.7,2.4,3.1,2.9c1.2,0.5,2.5,0.4,3.8,0.4h1.5L8.7,21.7z"/></g><g><polygon class="st0" points="40.1,4.4 38.3,4.3 36.2,0 38.8,0"/><path class="st1" d="M47.3,21.7l-9-17.4h1.5c1.3,0,2.6-0.1,3.8,0.4c1.4,0.5,2.3,1.8,3.1,2.9c1.2,1.7,2.3,3.6,3.5,5.4l2.9,4.3 l2.9,4.4l-5.8,8.7c-1.2,1.8-2.3,3.6-3.5,5.4c-0.8,1.2-1.7,2.4-3.1,2.9c-1.2,0.5-2.5,0.4-3.8,0.4h-1.5L47.3,21.7z"/></g></g></g><g id="Teal_-__x23_21a38f"><polygon class="st2" points="18.5,11.1 22.8,11.1 28.1,20.2 33.2,11.1 37.5,11.1 38.5,30.6 33.9,30.6 33.3,17.8 29.2,25.4 26.8,25.4 22.4,17.9 21.9,30.6 17.6,30.6"/></g></svg>